# xmcd
#
# Track frame offsets:
# 150
# 15799
# 31146
# 44286
# 57688
# 73305
# 86272
# 100141
# 116763
# 128560
# 143507
# 160527
# 177077
# 190936
# 204028
# 215838
#
# Disc length: 3056 seconds
#
#
# Revision: 0
# Processed by: cddbd v1.5.1PL2 Copyright (c) Steve Scherf et al.
# Submitted via: FreeRIP 2.944 
#
DISCID=cf0bee10
DTITLE=Sertanejas Eternas  - Sertanejas Eternas 
DYEAR=2005
DGENRE=Country
TTITLE0=Cabecinha no Ombro
TTITLE1=Relogio Quebrado
TTITLE2=A Caneta e a Enxada
TTITLE3=Lagrimas da Alma
TTITLE4=Fuscão Preto
TTITLE5=Casa Vasta
TTITLE6=Jacaré no Caminho
TTITLE7=Cabloca Tereza
TTITLE8=Rei do Gado
TTITLE9=Boiadeiro Valente
TTITLE10=Terra de Goias
TTITLE11=Adeus São Paulo Querido
TTITLE12=Fio de Cabelo
TTITLE13=Vem me Ajudar
TTITLE14=Coração de Pedra
TTITLE15=do Seresteiro
EXTD=emerson@betim.mg.gov.br
EXTT0=
EXTT1=
EXTT2=
EXTT3=
EXTT4=
EXTT5=
EXTT6=
EXTT7=
EXTT8=
EXTT9=
EXTT10=
EXTT11=
EXTT12=
EXTT13=
EXTT14=
EXTT15=
PLAYORDER=
